HIERARCHY
ROOT Hips
{
	OFFSET 0.000000 0.000000 0.000000 
	CHANNELS 6 Xposition Yposition Zposition Yrotation Zrotation Xrotation 
	JOINT Lumbar
	{
		OFFSET 0.000000 0.000000 0.000000 
		CHANNELS 3 Zrotation Xrotation Yrotation
		JOINT Neck
		{
			OFFSET 0.000000 0.445665 0.000000 
			CHANNELS 3 Zrotation Xrotation Yrotation
			End Site
			{
				OFFSET 0.000000 0.227535 0.000000 
			}
		}
		JOINT RightShoulder
		{
			OFFSET 0.019635 0.377685 0.194865 
			CHANNELS 3 Zrotation Xrotation Yrotation
			JOINT RightElbow
			{
				OFFSET 0.000000 -0.243375 0.000000 
				CHANNELS 2 Zrotation Yrotation
				JOINT RightWrist
				{
					OFFSET 0.000000 -0.264825 0.000000 
					CHANNELS 2 Zrotation Xrotation
					End Site
					{
						OFFSET 0.006600 -0.176220 0.000990 
					}
				}
			}
		}
		JOINT LeftShoulder
		{
			OFFSET 0.019635 0.377685 -0.194865 
			CHANNELS 3 Zrotation Xrotation Yrotation
			JOINT LeftElbow
			{
				OFFSET 0.000000 -0.243375 0.000000 
				CHANNELS 2 Zrotation Yrotation
				JOINT LeftWrist
				{
					OFFSET 0.000000 -0.264825 0.000000 
					CHANNELS 2 Zrotation Xrotation
					End Site
					{
						OFFSET 0.006600 -0.176220 -0.000990 
					}
				}
			}
		}
	}
	JOINT RightHip
	{
		OFFSET 0.052140 -0.069960 0.075570 
		CHANNELS 3 Zrotation Xrotation Yrotation
		JOINT RightKnee
		{
			OFFSET 0.000000 -0.402270 0.000000 
			CHANNELS 1 Zrotation
			JOINT RightAnkle
			{
				OFFSET 0.000000 -0.404085 0.000000 
				CHANNELS 3 Zrotation Xrotation Yrotation
				End Site
				{
					OFFSET 0.204105 -0.089430 0.008415 
				}
			}
		}
	}
	JOINT LeftHip
	{
		OFFSET 0.052140 -0.069960 -0.075570 
		CHANNELS 3 Zrotation Xrotation Yrotation
		JOINT LeftKnee
		{
			OFFSET 0.000000 -0.402270 0.000000 
			CHANNELS 1 Zrotation
			JOINT LeftAnkle
			{
				OFFSET 0.000000 -0.404085 0.000000 
				CHANNELS 3 Zrotation Xrotation Yrotation
				End Site
				{
					OFFSET 0.204105 -0.089430 -0.008415 
				}
			}
		}
	}
}
MOTION
Frames: 19
Frame Time: 0.02
0.26534 -0.00151 0.67262 171.52671 -52.41989 -6.78655 47.17318 0.92313 7.37795 3.32674 2.58777 -2.11994 17.25448 -51.94119 46.24893 94.3532 57.2841 15.13724 -8.36882 -23.83469 9.96404 -2.58818 29.54284 -99.32295 13.74325 -1.15851 34.96623 -8.09138 -8.5289 -26.10075 -7.46553 0.26923 -2.16627 70.70822 1.58628 6.19799 -27.44353 -10.43578 2.04659 3.41804
0.2456 -0.00365 0.67858 171.61702 -52.48869 -6.43211 47.72398 0.67634 7.28802 3.21845 2.39502 -2.11994 15.62899 -51.93523 44.92701 94.84746 57.28584 15.35229 -8.23615 -23.0991 10.58104 -2.36788 29.06231 -99.13161 13.98249 -1.07239 34.44186 -8.9695 -8.46364 -26.64688 -7.846 0.388 -2.12345 69.72407 0.93524 6.57914 -27.77598 -10.19395 2.08432 3.42424
0.22545 -0.00532 0.68442 171.86801 -52.51202 -6.02335 48.29104 0.40833 7.12733 3.03025 2.23601 -2.11994 13.77443 -51.91356 43.43964 95.34591 57.27022 15.57246 -8.21682 -22.33141 11.19866 -2.04858 28.60923 -98.78474 14.29446 -0.93831 34.02776 -9.88257 -8.48891 -27.419 -8.32132 0.53146 -2.07228 68.51302 0.30019 7.24577 -27.9577 -9.8302 2.15031 3.43832
0.20558 -0.00721 0.69031 172.04616 -52.54819 -5.64376 48.83952 0.15306 6.98792 2.88065 2.06076 -2.11994 12.05925 -51.89844 42.05769 95.83403 57.2598 15.79064 -8.1425 -21.57182 11.81131 -1.77895 28.14501 -98.52265 14.55957 -0.83177 33.60882 -10.77073 -8.44275 -28.15032 -8.76082 0.66169 -2.02603 67.38892 -0.33147 7.80737 -28.19274 -9.52775 2.19655 3.44578
0.18526 -0.00906 0.69625 172.22776 -52.61927 -5.24016 49.44141 -0.11656 6.89556 2.7194 1.88753 -2.11994 10.18548 -51.88867 40.54026 96.36088 57.25264 16.01255 -8.07534 -20.83688 12.44599 -1.48161 27.66709 -98.21098 14.88293 -0.70325 32.99795 -11.70239 -8.5163 -28.62239 -9.17496 0.80103 -1.97491 66.32777 -1.01204 8.27359 -28.50118 -9.20327 2.27061 3.46554
0.1658 -0.01089 0.70202 172.43975 -52.60652 -4.87612 49.93249 -0.3609 6.68618 2.56501 1.71934 -2.11994 8.59276 -51.86143 39.26832 96.80577 57.2473 16.22333 -8.02146 -20.04322 13.0343 -1.2247 27.22848 -97.9618 15.10173 -0.60835 32.81505 -12.54749 -8.36819 -29.68471 -9.65809 0.92635 -1.93219 65.08483 -1.58615 8.99428 -28.61743 -8.89497 2.2947 3.46213
0.14864 -0.01283 0.70745 172.68357 -52.36877 -4.62844 50.12653 -0.52939 6.19355 2.4393 1.55027 -2.11994 7.81499 -51.8092 38.72048 97.03702 57.1283 16.43507 -7.99741 -19.10518 13.49112 -1.06483 26.87808 -97.9209 15.02007 -0.6162 33.76593 -13.17154 -7.54944 -32.34894 -10.36155 1.01505 -1.91247 63.38096 -1.86042 10.45526 -28.23884 -8.6571 2.16444 3.38807
0.13239 -0.01476 0.71269 172.95399 -52.04895 -4.42428 50.20539 -0.67154 5.58198 2.32525 1.38653 -2.11994 7.33233 -51.73685 38.4258 97.18316 57.03132 16.6295 -7.98082 -18.10786 13.90117 -0.95714 26.57022 -97.94553 14.82949 -0.6591 35.14707 -13.70165 -6.51292 -35.59073 -11.12127 1.08717 -1.90196 61.50552 -2.02877 12.14374 -27.67102 -8.44007 1.98462 3.29124
0.11583 -0.01668 0.71794 173.21993 -51.7692 -4.20479 50.3278 -0.82626 5.00965 2.21242 1.22477 -2.11994 6.72698 -51.65991 38.0123 97.35855 57.00815 16.80931 -7.94777 -17.13166 14.33485 -0.85129 26.25222 -97.94246 14.68507 -0.68735 36.34535 -14.25732 -5.59939 -38.55495 -11.82032 1.16177 -1.8886 59.71828 -2.25197 13.65617 -27.18901 -8.21568 1.83393 3.20803
0.09883 -0.01863 0.72348 173.4597 -51.47549 -3.96432 50.48796 -0.97972 4.49554 2.0692 1.04541 -2.11994 6.06526 -51.6375 37.60769 97.57244 56.64258 17.08216 -7.97141 -16.1787 14.75993 -0.63304 25.89446 -97.93253 14.55788 -0.71032 37.4956 -14.88768 -4.58352 -41.60582 -12.67061 1.25917 -1.86903 57.87864 -2.44834 15.48035 -26.70218 -7.97803 1.65687 3.11155
0.08296 -0.02052 0.72837 173.75786 -51.19286 -3.77886 50.54197 -1.12862 3.83513 1.99315 0.90372 -2.11994 5.59403 -51.50062 37.24827 97.68775 56.98056 17.1597 -7.88013 -15.16387 15.1901 -0.66387 25.63151 -97.94547 14.36725 -0.75101 38.84459 -15.3383 -3.73297 -44.59155 -13.21835 1.30408 -1.86505 56.11188 -2.67315 16.71172 -26.18306 -7.7747 1.52192 3.03688
0.06988 -0.02225 0.73154 174.21262 -50.95349 -3.73263 50.33012 -1.27678 2.78103 2.09986 0.86326 -2.11994 5.57831 -51.02123 36.94048 97.5358 59.38599 16.67899 -7.44508 -13.99211 15.65964 -1.35914 25.60147 -98.08503 14.03483 -0.85171 40.65386 -15.32662 -3.34731 -47.41297 -12.91412 1.21444 -1.89883 54.57706 -3.02385 16.195 -25.61564 -7.66005 1.52132 3.03076
0.05792 -0.02391 0.73405 174.72402 -50.72987 -3.74066 50.01559 -1.42018 1.58812 2.27419 0.86062 -2.11994 5.74482 -50.43344 36.67216 97.29079 62.4749 16.00654 -6.89808 -12.76102 16.13288 -2.30544 25.66888 -98.23296 13.6413 -0.96595 42.64419 -15.13474 -3.14232 -50.11596 -12.30416 1.07131 -1.94857 53.12502 -3.40312 15.08246 -25.02406 -7.58002 1.56365 3.04685
0.04549 -0.02559 0.73683 175.20747 -50.5039 -3.72577 49.74846 -1.562 0.4709 2.41787 0.84146 -2.11994 5.8282 -49.91567 36.39428 97.09841 65.16509 15.43715 -6.41805 -11.55688 16.59592 -3.1447 25.70345 -98.32351 13.27024 -1.06088 44.54061 -15.0183 -2.88509 -52.77229 -11.83468 0.94836 -1.99304 51.64331 -3.75497 14.27797 -24.44778 -7.48541 1.58221 3.05089
0.03294 -0.02729 0.73972 175.70139 -50.25404 -3.70605 49.47383 -1.71847 -0.70554 2.56145 0.8197 -2.11994 5.92375 -49.30878 36.09067 96.85826 68.22628 14.80027 -5.8708 -10.34819 17.09513 -3.95736 25.69048 -98.63542 12.91543 -1.21106 46.50294 -14.92703 -2.49901 -55.88336 -11.35806 0.84209 -2.02949 50.12083 -4.16306 13.32538 -23.84633 -7.38658 1.61672 3.06225
0.02089 -0.02896 0.74223 176.18644 -50.05961 -3.70742 49.1924 -1.84395 -1.78781 2.72127 0.81227 -2.11994 6.03251 -48.86299 35.8456 96.69808 70.67893 14.25823 -5.43639 -9.13883 17.51815 -4.88262 25.80002 -98.49624 12.51668 -1.25076 48.36321 -14.74028 -2.42104 -57.9988 -10.82633 0.68885 -2.0863 48.70653 -4.46343 12.53532 -23.29435 -7.30451 1.62924 3.06411
0.00995 -0.03054 0.7439 176.63399 -50.00784 -3.76448 48.91388 -1.88246 -2.59411 2.90875 0.83511 -2.11994 6.14053 -48.88123 35.76228 96.76936 71.26131 14.02964 -5.34566 -7.91622 17.7499 -6.07289 26.21554 -97.03449 11.98676 -0.96637 49.91422 -14.34816 -3.20389 -57.50274 -10.18736 0.41688 -2.19551 47.56073 -4.44916 12.3508 -22.88367 -7.26028 1.56741 3.03292
-0.00053 -0.03211 0.74519 177.07028 -50.01307 -3.83858 48.63344 -1.89055 -3.29675 3.11037 0.87111 -2.11994 6.25312 -49.06715 35.73406 96.92699 71.20937 13.90293 -5.37193 -6.7007 17.90122 -7.36488 26.75193 -95.13304 11.42041 -0.57323 51.35138 -13.86478 -4.28264 -55.9881 -9.50844 0.10017 -2.32449 46.5238 -4.32795 12.34721 -22.52487 -7.23163 1.48279 2.99178
-0.01122 -0.03371 0.74662 177.51108 -49.99678 -3.89777 48.35651 -1.91438 -4.03458 3.30586 0.90102 -2.11994 6.35678 -49.18081 35.67216 97.05355 71.46567 13.72581 -5.34092 -5.49857 18.07659 -8.59961 27.2389 -93.48056 10.88689 -0.2398 52.82685 -13.41335 -5.19008 -54.86225 -8.86755 -0.19485 -2.44446 45.44429 -4.26292 12.25239 -22.14398 -7.19574 1.41089 2.95622
